<svg width="4596" height="4596" viewBox="0 0 4596 4596" fill="none" xmlns="http://www.w3.org/2000/svg">
<path d="M2545.14 1369.49C2720.05 1197.22 2955.78 1100.76 3201.29 1100.98C3447.18 1100.98 3683.21 1197.39 3857.44 1369.49C4015.21 1525.13 4097.39 1699.36 4119.12 1880.31C4140.73 2059.68 4102.1 2239.73 4028.42 2408.59C3882.19 2744.5 3591.51 3049.96 3312.7 3248.71C3280.2 3271.96 3241.25 3284.46 3201.29 3284.46C3161.33 3284.46 3122.37 3271.96 3089.88 3248.71C2811.07 3049.96 2520.39 2744.39 2374.04 2408.59C2300.48 2239.73 2261.96 2059.68 2283.46 1880.19C2305.18 1699.36 2387.37 1525.24 2545.14 1369.49ZM2893.37 1968.76C2893.37 1887.1 2925.81 1808.78 2983.55 1751.03C3041.3 1693.28 3119.62 1660.84 3201.29 1660.84C3282.95 1660.84 3361.27 1693.28 3419.02 1751.03C3476.77 1808.78 3509.21 1887.1 3509.21 1968.76C3509.21 2050.43 3476.77 2128.75 3419.02 2186.5C3361.27 2244.24 3282.95 2276.68 3201.29 2276.68C3119.62 2276.68 3041.3 2244.24 2983.55 2186.5C2925.81 2128.75 2893.37 2050.43 2893.37 1968.76Z" fill="#FCD129"/>
<path d="M2545.14 1369.49C2720.05 1197.22 2955.78 1100.76 3201.29 1100.98C3447.18 1100.98 3683.21 1197.39 3857.44 1369.49C4015.21 1525.13 4097.39 1699.36 4119.12 1880.31C4140.73 2059.68 4102.1 2239.73 4028.42 2408.59C3882.19 2744.5 3591.51 3049.96 3312.7 3248.71C3280.2 3271.96 3241.25 3284.46 3201.29 3284.46C3161.33 3284.46 3122.37 3271.96 3089.88 3248.71C2811.07 3049.96 2520.39 2744.39 2374.04 2408.59C2300.48 2239.73 2261.96 2059.68 2283.46 1880.19C2305.18 1699.36 2387.37 1525.24 2545.14 1369.49ZM2893.37 1968.76C2893.37 1887.1 2925.81 1808.78 2983.55 1751.03C3041.3 1693.28 3119.62 1660.84 3201.29 1660.84C3282.95 1660.84 3361.27 1693.28 3419.02 1751.03C3476.77 1808.78 3509.21 1887.1 3509.21 1968.76C3509.21 2050.43 3476.77 2128.75 3419.02 2186.5C3361.27 2244.24 3282.95 2276.68 3201.29 2276.68C3119.62 2276.68 3041.3 2244.24 2983.55 2186.5C2925.81 2128.75 2893.37 2050.43 2893.37 1968.76Z" fill="#FCD129"/>
<path d="M3562.37 2477.26C3532.3 2477.26 3509.27 2469.58 3493.27 2454.22C3477.91 2438.23 3470.23 2415.51 3470.23 2386.08V1891.79C3470.23 1862.36 3477.91 1839.96 3493.27 1824.6C3509.27 1808.61 3532.3 1800.61 3562.37 1800.61H3887.74C3910.78 1800.61 3928.05 1806.37 3939.57 1817.89C3951.09 1829.4 3956.85 1846.04 3956.85 1867.79C3956.85 1890.19 3951.09 1907.47 3939.57 1919.62C3928.05 1931.14 3910.78 1936.9 3887.74 1936.9H3639.16V2065.51H3866.63C3889.02 2065.51 3905.98 2071.27 3917.49 2082.79C3929.65 2094.3 3935.73 2111.26 3935.73 2133.65C3935.73 2156.05 3929.65 2173.01 3917.49 2184.52C3905.98 2196.04 3889.02 2201.8 3866.63 2201.8H3639.16V2340.97H3887.74C3910.78 2340.97 3928.05 2347.05 3939.57 2359.2C3951.09 2370.72 3956.85 2387.36 3956.85 2409.11C3956.85 2431.51 3951.09 2448.46 3939.57 2459.98C3928.05 2471.5 3910.78 2477.26 3887.74 2477.26H3562.37Z" fill="#3B006A"/>
<path d="M2698.64 2485.89C2674.97 2485.89 2655.77 2480.45 2641.05 2469.58C2626.34 2458.06 2614.82 2440.46 2606.5 2416.79L2419.34 1895.63C2409.11 1866.83 2410.71 1842.52 2424.14 1822.68C2438.22 1802.21 2462.85 1791.97 2498.05 1791.97C2521.72 1791.97 2540.28 1797.73 2553.71 1809.24C2567.15 1820.12 2577.71 1837.4 2585.39 1861.07L2728.39 2290.1H2683.28L2836.85 1861.07C2845.81 1837.4 2857.01 1820.12 2870.44 1809.24C2883.88 1797.73 2901.16 1791.97 2922.27 1791.97C2943.39 1791.97 2960.34 1797.73 2973.14 1809.24C2985.94 1820.12 2996.49 1837.72 3004.81 1862.03L3148.78 2290.1H3110.39L3257.24 1861.07C3264.91 1837.4 3275.15 1820.12 3287.95 1809.24C3301.39 1797.73 3319.94 1791.97 3343.62 1791.97C3373.05 1791.97 3394.49 1802.21 3407.92 1822.68C3422 1842.52 3423.6 1866.83 3412.72 1895.63L3223.64 2417.75C3215.33 2440.78 3203.81 2458.06 3189.09 2469.58C3175.01 2480.45 3156.14 2485.89 3132.46 2485.89C3108.15 2485.89 3088.63 2480.45 3073.92 2469.58C3059.84 2458.06 3048.64 2440.46 3040.32 2416.79L2905 2036.71H2928.99L2790.78 2417.75C2781.82 2440.78 2770.31 2458.06 2756.23 2469.58C2742.15 2480.45 2722.96 2485.89 2698.64 2485.89Z" fill="#3B006A"/>
<path d="M2034.76 2488.38C2000.14 2488.38 1973.35 2478.08 1954.4 2457.47C1935.44 2436.87 1925.96 2407.19 1925.96 2368.45V1977.74C1925.96 1939 1935.44 1909.33 1954.4 1888.72C1973.35 1868.11 2000.14 1857.81 2034.76 1857.81C2070.21 1857.81 2097.41 1868.11 2116.37 1888.72C2136.15 1909.33 2146.04 1939 2146.04 1977.74V2368.45C2146.04 2407.19 2136.56 2436.87 2117.6 2457.47C2098.65 2478.08 2071.03 2488.38 2034.76 2488.38ZM2034.76 1770.02C1996.02 1770.02 1965.94 1760.96 1944.5 1742.82C1923.9 1724.69 1913.59 1698.31 1913.59 1663.69C1913.59 1629.89 1923.9 1603.93 1944.5 1585.8C1965.94 1567.66 1996.02 1558.59 2034.76 1558.59C2075.15 1558.59 2105.65 1567.66 2126.26 1585.8C2146.87 1603.93 2157.17 1629.89 2157.17 1663.69C2157.17 1698.31 2146.87 1724.69 2126.26 1742.82C2105.65 1760.96 2075.15 1770.02 2034.76 1770.02Z" fill="black"/>
<path d="M1564.17 2488.39C1527.9 2488.39 1499.88 2478.91 1480.09 2459.95C1461.14 2440.99 1451.66 2413.38 1451.66 2377.11V1967.85C1451.66 1932.41 1460.72 1905.21 1478.86 1886.25C1497.82 1867.29 1524.61 1857.81 1559.23 1857.81C1593.85 1857.81 1620.22 1867.29 1638.36 1886.25C1656.49 1905.21 1665.56 1932.41 1665.56 1967.85V2018.55H1653.19C1661.44 1969.09 1682.46 1929.94 1716.25 1901.09C1750.87 1872.24 1793.73 1856.99 1844.84 1855.34C1868.74 1854.51 1886.47 1860.7 1898.01 1873.88C1910.37 1886.25 1916.96 1909.74 1917.79 1944.36C1917.79 1974.04 1911.61 1997.53 1899.24 2014.84C1886.88 2032.15 1863.39 2042.45 1828.77 2045.75L1800.33 2048.22C1756.64 2052.34 1724.91 2064.71 1705.12 2085.31C1685.34 2105.1 1675.45 2134.77 1675.45 2174.34V2377.11C1675.45 2413.38 1665.97 2440.99 1647.01 2459.95C1628.05 2478.91 1600.44 2488.39 1564.17 2488.39Z" fill="black"/>
<path d="M675.04 2477.26C636.299 2477.26 606.625 2467.37 586.018 2447.58C566.235 2426.98 556.344 2397.71 556.344 2359.8V1723.04C556.344 1685.12 566.235 1656.27 586.018 1636.49C606.625 1615.88 636.299 1605.58 675.04 1605.58H917.38C1069.05 1605.58 1186.1 1643.5 1268.52 1719.33C1351.78 1795.16 1393.4 1902.32 1393.4 2040.8C1393.4 2110.04 1382.69 2171.86 1361.26 2226.26C1339.82 2279.84 1308.91 2325.59 1268.52 2363.51C1228.13 2400.6 1178.26 2429.04 1118.92 2448.82C1060.39 2467.78 993.214 2477.26 917.38 2477.26H675.04ZM783.846 2293.03H902.542C946.229 2293.03 983.734 2287.67 1015.06 2276.96C1047.2 2266.24 1073.58 2250.58 1094.19 2229.97C1115.62 2209.37 1131.28 2183.4 1141.17 2152.08C1151.89 2120.75 1157.25 2083.66 1157.25 2040.8C1157.25 1955.07 1136.23 1892.02 1094.19 1851.63C1052.15 1810.41 988.268 1789.81 902.542 1789.81H783.846V2293.03Z" fill="black"/>
<path fill-rule="evenodd" clip-rule="evenodd" d="M565.484 2670.6C565.484 2648.97 583.014 2631.45 604.638 2631.45L2352.21 2631.45C2373.84 2631.45 2391.37 2648.98 2391.37 2670.6C2391.37 2692.22 2373.84 2709.75 2352.21 2709.75L604.638 2709.75C583.014 2709.75 565.484 2692.22 565.484 2670.6Z" fill="#FCD129"/>
<path d="M2568.76 3036.21L2541.57 2986.85H2533.93V3036.21H2502.08V2905.45H2555.54C2565.85 2905.45 2574.6 2907.25 2581.8 2910.85C2589.13 2914.45 2594.59 2919.42 2598.2 2925.75C2601.8 2931.96 2603.6 2938.91 2603.6 2946.61C2603.6 2955.3 2601.11 2963.07 2596.15 2969.9C2591.3 2976.73 2584.1 2981.57 2574.54 2984.43L2604.71 3036.21H2568.76ZM2533.93 2964.31H2553.68C2559.51 2964.31 2563.86 2962.88 2566.71 2960.02C2569.7 2957.17 2571.19 2953.13 2571.19 2947.92C2571.19 2942.95 2569.7 2939.04 2566.71 2936.18C2563.86 2933.32 2559.51 2931.9 2553.68 2931.9H2533.93V2964.31Z" fill="black"/>
<path d="M2405.23 2930.96V2957.42H2447.88V2982H2405.23V3010.69H2453.47V3036.21H2373.38V2905.45H2453.47V2930.96H2405.23Z" fill="black"/>
<path d="M2322.43 2905.45V3036.21H2290.57V2982.38H2241.02V3036.21H2209.17V2905.45H2241.02V2956.67H2290.57V2905.45H2322.43Z" fill="black"/>
<path d="M2165.24 2905.45V2930.96H2130.59V3036.21H2098.74V2930.96H2064.09V2905.45H2165.24Z" fill="black"/>
<path d="M1974.31 2930.96V2957.42H2016.96V2982H1974.31V3010.69H2022.55V3036.21H1942.45V2905.45H2022.55V2930.96H1974.31Z" fill="black"/>
<path d="M1859.44 2946.81C1857.08 2942.47 1853.67 2939.17 1849.19 2936.94C1844.85 2934.58 1839.69 2933.4 1833.73 2933.4C1823.43 2933.4 1815.17 2936.81 1808.96 2943.64C1802.75 2950.35 1799.65 2959.35 1799.65 2970.65C1799.65 2982.7 1802.87 2992.14 1809.33 2998.97C1815.91 3005.67 1824.92 3009.03 1836.34 3009.03C1844.17 3009.03 1850.75 3007.04 1856.09 3003.07C1861.55 2999.09 1865.52 2993.38 1868.01 2985.93H1827.59V2962.46H1896.88V2992.08C1894.52 3000.02 1890.49 3007.41 1884.77 3014.24C1879.18 3021.07 1872.04 3026.6 1863.35 3030.82C1854.66 3035.04 1844.85 3037.15 1833.92 3037.15C1821.01 3037.15 1809.46 3034.36 1799.27 3028.77C1789.21 3023.06 1781.33 3015.17 1775.62 3005.12C1770.03 2995.06 1767.23 2983.57 1767.23 2970.65C1767.23 2957.74 1770.03 2946.25 1775.62 2936.19C1781.33 2926.01 1789.21 2918.13 1799.27 2912.54C1809.33 2906.82 1820.82 2903.97 1833.73 2903.97C1849.38 2903.97 1862.54 2907.76 1873.22 2915.33C1884.03 2922.91 1891.17 2933.4 1894.65 2946.81H1859.44Z" fill="black"/>
<path d="M1660.1 3037.52C1647.81 3037.52 1636.51 3034.67 1626.2 3028.96C1616.02 3023.24 1607.89 3015.3 1601.8 3005.11C1595.84 2994.81 1592.86 2983.26 1592.86 2970.47C1592.86 2957.68 1595.84 2946.19 1601.8 2936.01C1607.89 2925.82 1616.02 2917.87 1626.2 2912.16C1636.51 2906.45 1647.81 2903.59 1660.1 2903.59C1672.4 2903.59 1683.64 2906.45 1693.82 2912.16C1704.13 2917.87 1712.2 2925.82 1718.04 2936.01C1724 2946.19 1726.98 2957.68 1726.98 2970.47C1726.98 2983.26 1724 2994.81 1718.04 3005.11C1712.07 3015.3 1704 3023.24 1693.82 3028.96C1683.64 3034.67 1672.4 3037.52 1660.1 3037.52ZM1660.1 3008.47C1670.54 3008.47 1678.86 3004.99 1685.06 2998.03C1691.4 2991.08 1694.56 2981.89 1694.56 2970.47C1694.56 2958.92 1691.4 2949.73 1685.06 2942.9C1678.86 2935.94 1670.54 2932.47 1660.1 2932.47C1649.55 2932.47 1641.1 2935.88 1634.77 2942.71C1628.56 2949.54 1625.46 2958.79 1625.46 2970.47C1625.46 2982.01 1628.56 2991.27 1634.77 2998.22C1641.1 3005.05 1649.55 3008.47 1660.1 3008.47Z" fill="black"/>
<path d="M1554.33 2905.45V2930.96H1519.69V3036.21H1487.83V2930.96H1453.19V2905.45H1554.33Z" fill="black"/>
<path d="M1309.83 2946.81C1307.47 2942.47 1304.06 2939.17 1299.59 2936.94C1295.24 2934.58 1290.09 2933.4 1284.12 2933.4C1273.82 2933.4 1265.56 2936.81 1259.35 2943.64C1253.14 2950.35 1250.04 2959.35 1250.04 2970.65C1250.04 2982.7 1253.27 2992.14 1259.72 2998.97C1266.3 3005.67 1275.31 3009.03 1286.73 3009.03C1294.56 3009.03 1301.14 3007.04 1306.48 3003.07C1311.94 2999.09 1315.92 2993.38 1318.4 2985.93H1277.98V2962.46H1347.27V2992.08C1344.91 3000.02 1340.88 3007.41 1335.16 3014.24C1329.58 3021.07 1322.43 3026.6 1313.74 3030.82C1305.05 3035.04 1295.24 3037.15 1284.31 3037.15C1271.4 3037.15 1259.85 3034.36 1249.66 3028.77C1239.61 3023.06 1231.72 3015.17 1226.01 3005.12C1220.42 2995.06 1217.62 2983.57 1217.62 2970.65C1217.62 2957.74 1220.42 2946.25 1226.01 2936.19C1231.72 2926.01 1239.61 2918.13 1249.66 2912.54C1259.72 2906.82 1271.21 2903.97 1284.12 2903.97C1299.77 2903.97 1312.93 2907.76 1323.61 2915.33C1334.42 2922.91 1341.56 2933.4 1345.04 2946.81H1309.83Z" fill="black"/>
<path d="M1172 3036.21H1140.14L1086.87 2955.55V3036.21H1055.02V2905.45H1086.87L1140.14 2986.47V2905.45H1172V3036.21Z" fill="black"/>
<path d="M1003.98 2905.45V3036.21H972.125V2905.45H1003.98Z" fill="black"/>
<path d="M857.834 2905.45C871.618 2905.45 883.663 2908.18 893.971 2913.64C904.278 2919.11 912.225 2926.8 917.814 2936.74C923.526 2946.55 926.382 2957.91 926.382 2970.83C926.382 2983.62 923.526 2994.98 917.814 3004.92C912.225 3014.85 904.216 3022.55 893.784 3028.01C883.477 3033.48 871.494 3036.21 857.834 3036.21H808.844V2905.45H857.834ZM855.785 3008.64C867.83 3008.64 877.206 3005.35 883.912 2998.77C890.618 2992.19 893.971 2982.87 893.971 2970.83C893.971 2958.78 890.618 2949.41 883.912 2942.7C877.206 2935.99 867.83 2932.64 855.785 2932.64H840.696V3008.64H855.785Z" fill="black"/>
<path d="M757.806 2905.45V3036.21H725.953V2905.45H757.806Z" fill="black"/>
<path d="M643.201 3036.21L616.006 2986.85H608.368V3036.21H576.516V2905.45H629.976C640.283 2905.45 649.038 2907.25 656.241 2910.85C663.567 2914.45 669.031 2919.42 672.633 2925.75C676.234 2931.96 678.035 2938.91 678.035 2946.61C678.035 2955.3 675.551 2963.07 670.584 2969.9C665.741 2976.73 658.538 2981.57 648.976 2984.43L679.152 3036.21H643.201ZM608.368 2964.31H628.113C633.95 2964.31 638.296 2962.88 641.152 2960.02C644.133 2957.17 645.623 2953.13 645.623 2947.92C645.623 2942.95 644.133 2939.04 641.152 2936.18C638.296 2933.32 633.95 2931.9 628.113 2931.9H608.368V2964.31Z" fill="black"/>
</svg>
